<svg xmlns="http://www.w3.org/2000/svg" width="69.98" height="63.076" viewBox="0 0 69.98 63.076">
  <g id="Group_104" data-name="Group 104" transform="translate(-0.001 0)">
    <g id="Group_105" data-name="Group 105">
      <g id="Path_187" data-name="Path 187" transform="matrix(0.966, -0.259, 0.259, 0.966, 10.891, 25.058)" fill="#fff" stroke-linecap="round" stroke-linejoin="round">
        <path d="M 15.95597839355469 34.34006500244141 C 15.51035594940186 34.34006500244141 15.08631134033203 34.3145637512207 14.65960025787354 34.26211929321289 C 11.49292278289795 33.87285232543945 8.892511367797852 33.12956619262695 6.930666923522949 32.05290985107422 C 5.419967174530029 31.22383117675781 4.283211708068848 30.1890869140625 3.551955938339233 28.97739791870117 C 1.607913017272949 25.75609970092773 2.951369047164917 21.95268630981445 3.019670486450195 21.76550102233887 L 3.19128942489624 21.34526443481445 L 3.18896484375 20.95238494873047 C 3.204088687896729 20.7238941192627 3.473787307739258 17.30489158630371 6.065600395202637 13.98473167419434 C 7.617478370666504 11.99674224853516 9.709423065185547 10.40648651123047 12.28332233428955 9.258120536804199 C 15.62872314453125 7.765542507171631 19.80685615539551 7.008753299713135 24.70166778564453 7.008753299713135 C 26.00295639038086 7.008753299713135 27.37409019470215 7.062819957733154 28.7769775390625 7.169475555419922 C 32.26121139526367 7.434375762939453 35.39424514770508 7.568686962127686 38.08902359008789 7.568686962127686 C 41.92287063598633 7.568686962127686 44.91247177124023 7.308014869689941 47.16005325317383 6.774758338928223 C 47.00654220581055 7.090100288391113 46.83930969238281 7.421515941619873 46.65745544433594 7.76893138885498 C 44.88788986206055 11.14951992034912 42.29249954223633 14.98810863494873 39.34941101074219 18.57759857177734 C 35.63544464111328 23.10726547241211 31.62855529785156 26.94754219055176 27.76191139221191 29.68326377868652 C 25.64162254333496 31.18340873718262 23.57701110839844 32.34035491943359 21.62544441223145 33.12195205688477 C 19.60724449157715 33.93023300170898 17.69976806640625 34.34006500244141 15.95597839355469 34.34006500244141 Z M 49.65248870849609 2.486895561218262 C 49.53153228759766 2.461001634597778 49.33877944946289 2.390991449356079 49.14599990844727 2.227953433990479 C 49.05321502685547 2.149483919143677 48.98244857788086 2.067997694015503 48.92950820922852 1.993080496788025 L 48.82317352294922 -2.186107397079468 L 49.57918930053711 -0.3938778340816498 L 49.65248870849609 2.486895561218262 Z" stroke="none"/>
        <path d="M 15.95597267150879 31.84005355834961 C 21.21633529663086 31.84005355834961 28.58280944824219 27.06014060974121 35.66131210327148 19.05379104614258 C 38.21840286254883 16.16150856018066 40.60901260375977 12.97867965698242 42.52260208129883 9.931129455566406 C 41.1740608215332 10.02312278747559 39.69863128662109 10.06869125366211 38.08902359008789 10.06869125366211 C 35.33121109008789 10.06869125366211 32.1344108581543 9.931953430175781 28.58747291564941 9.662278175354004 C 27.24736022949219 9.560403823852539 25.93998527526855 9.508753776550293 24.70167350769043 9.508753776550293 C 20.24824714660645 9.508753776550293 16.47153472900391 10.1667537689209 13.47646045684814 11.4644660949707 C 11.28293514251709 12.41487884521484 9.503047943115234 13.71709060668945 8.186247825622559 15.33492851257324 C 6.040075778961182 17.97173309326172 5.718723297119141 20.73756408691406 5.686913967132568 21.07560920715332 C 5.678614616394043 21.6732120513916 5.563997745513916 22.12728500366211 5.342735290527344 22.68907928466797 C 5.340535163879395 22.69466590881348 5.10951042175293 23.3951530456543 5.028972625732422 24.31380271911621 C 4.914535045623779 25.61894035339355 5.132810115814209 26.74515342712402 5.677722930908203 27.66117858886719 C 6.173597812652588 28.49476623535156 6.991485118865967 29.23039054870605 8.108647346496582 29.84760284423828 C 9.793072700500488 30.7782154083252 12.09977245330811 31.42864036560059 14.96453475952148 31.78079032897949 C 15.2890100479126 31.82066535949707 15.61330986022949 31.84005355834961 15.95597267150879 31.84005355834961 M 15.95596885681152 36.84005737304688 C 15.41675090789795 36.84005737304688 14.88464641571045 36.80859375 14.35463523864746 36.74345397949219 C -4.646664619445801 34.40769195556641 0.6905726790428162 20.85675430297852 0.6905726790428162 20.85675430297852 C 0.6905726790428162 20.85675430297852 1.282100200653076 4.508750915527344 24.70166969299316 4.508750915527344 C 26.04692649841309 4.508750915527344 27.46634864807129 4.562625885009766 28.96647262573242 4.676665782928467 C 32.56342697143555 4.950135231018066 35.57437133789062 5.068689346313477 38.08902359008789 5.068689346313477 C 54.33174896240234 5.068689346313477 49.89029312133789 0.1240359842777252 49.23519134521484 0.04698057845234871 C 49.42043685913086 0.01557089574635029 49.59403228759766 1.727294943520974e-06 49.75314331054688 1.727294943520974e-06 C 57.54801940917969 1.727294943520974e-06 34.3377571105957 36.84005737304688 15.95596885681152 36.84005737304688 Z M 49.18272399902344 0.05624093487858772 C 49.19236373901367 0.04940279573202133 49.20508193969727 0.04607648402452469 49.22051620483398 0.04607648402452469 C 49.22517395019531 0.04607648402452469 49.23005676269531 0.04637683555483818 49.23519134521484 0.04698057845234871 C 49.21771240234375 0.04994375631213188 49.20043563842773 0.05299282819032669 49.18272399902344 0.05624093487858772 Z" stroke="none" fill="#0187f4"/>
      </g>
      <g id="Path_188" data-name="Path 188" transform="translate(0 44.585) rotate(-60)" fill="#fff" stroke-linecap="round" stroke-linejoin="round">
        <path d="M 16.03097343444824 34.48240280151367 C 15.58728408813477 34.48240280151367 15.14690685272217 34.45579147338867 14.72209548950195 34.40330505371094 C 11.52499580383301 34.00822448730469 8.902584075927734 33.25393676757812 6.927751064300537 32.16140365600586 C 5.408617973327637 31.32098007202148 4.267929077148438 30.27214813232422 3.537362337112427 29.04402542114258 C 1.572773456573486 25.74147033691406 3.002429008483887 21.87272453308105 3.017428874969482 21.83458137512207 L 3.180395603179932 21.42003631591797 L 3.188975811004639 21.01793479919434 C 3.201270580291748 20.82416343688965 3.458293437957764 17.37060928344727 6.071117877960205 14.01748085021973 C 7.626451015472412 12.02148056030273 9.723440170288086 10.42484760284424 12.30385112762451 9.271947860717773 C 15.65732860565186 7.773647785186768 19.84602928161621 7.013947486877441 24.75359535217285 7.013947486877441 C 26.06848526000977 7.013947486877441 27.4543628692627 7.069069862365723 28.87273979187012 7.177781105041504 C 32.39061737060547 7.447436332702637 35.55141830444336 7.584158897399902 38.26731872558594 7.584158897399902 C 42.10637283325195 7.584158897399902 45.098876953125 7.322207927703857 47.34748458862305 6.786312103271484 C 47.19499969482422 7.100648880004883 47.02894592285156 7.430887222290039 46.84837341308594 7.77708101272583 C 45.0842170715332 11.15930366516113 42.49256134033203 15.00368118286133 39.55081939697266 18.60204696655273 C 35.82270812988281 23.16229248046875 31.79715156555176 27.03003692626953 27.90933990478516 29.78715896606445 C 25.7769947052002 31.29936981201172 23.7003173828125 32.46570205688477 21.73701858520508 33.25378036499023 C 19.70598411560059 34.06902694702148 17.78619575500488 34.48240280151367 16.03097343444824 34.48240280151367 Z M 49.82238388061523 2.486359357833862 C 49.70296478271484 2.460278749465942 49.51423263549805 2.390971660614014 49.32470703125 2.231369972229004 C 49.22636795043945 2.148563385009766 49.15279769897461 2.062320947647095 49.09900283813477 1.984122395515442 L 48.99514389038086 -2.186070442199707 L 49.75064086914062 -0.3942684829235077 L 49.82238388061523 2.486359357833862 Z" stroke="none"/>
        <path d="M 16.03096961975098 31.98239707946777 C 21.3169059753418 31.98239707946777 28.71318244934082 27.18057250976562 35.81600570678711 19.13752174377441 C 38.39003753662109 16.22275733947754 40.79498672485352 13.01477241516113 42.71646499633789 9.945243835449219 C 41.36370468139648 10.03814125061035 39.88306427001953 10.08415985107422 38.26729583740234 10.08415985107422 C 35.48789596557617 10.08415985107422 32.2628173828125 9.944972991943359 28.68168258666992 9.670473098754883 C 27.32668113708496 9.566622734069824 26.00506973266602 9.513959884643555 24.75358200073242 9.513959884643555 C 20.28760719299316 9.513959884643555 16.50056838989258 10.17472267150879 13.49765682220459 11.47787284851074 C 11.29783153533936 12.43252277374268 9.512993812561035 13.74071025848389 8.192694664001465 15.36610984802246 C 6.040674686431885 18.01543998718262 5.719174861907959 20.79433631896973 5.687260627746582 21.13556861877441 C 5.680582046508789 21.7635669708252 5.600956916809082 22.13834571838379 5.357243537902832 22.71813583374023 C 5.25282621383667 23.03174209594727 4.422554016113281 25.70954132080078 5.719194412231445 27.82090950012207 C 6.230506896972656 28.65351104736328 7.063019275665283 29.38814735412598 8.193606376647949 30.00440979003906 C 9.882944107055664 30.92523574829102 12.18261909484863 31.57047271728516 15.02865695953369 31.92217254638672 C 15.35211944580078 31.96213531494141 15.68934440612793 31.98239707946777 16.03096961975098 31.98239707946777 M 16.03096580505371 36.98239898681641 C 15.48731136322021 36.98239898681641 14.94991874694824 36.95045852661133 14.4155445098877 36.88443374633789 C -4.658718109130859 34.52734756469727 0.6907567381858826 20.9199104309082 0.6907567381858826 20.9199104309082 C 0.6907567381858826 20.9199104309082 1.277094841003418 4.513954162597656 24.75358772277832 4.513954162597656 C 26.11333465576172 4.513954162597656 27.54610824584961 4.568775653839111 29.06379508972168 4.685097694396973 C 32.69645690917969 4.963546752929688 35.73389434814453 5.084161281585693 38.26729965209961 5.084161281585693 C 54.5167350769043 5.084161281585693 50.06318664550781 0.1245245635509491 49.40618133544922 0.0468263179063797 C 49.59152603149414 0.01548511907458305 49.76532745361328 -5.744018562836573e-05 49.92461776733398 -5.744018562836573e-05 C 57.75234603881836 -5.744018562836573e-05 34.48206329345703 36.98239898681641 16.03096580505371 36.98239898681641 Z M 49.35351943969727 0.05609763786196709 C 49.36319351196289 0.04923491552472115 49.37589645385742 0.04591013863682747 49.39138793945312 0.04591013863682747 C 49.39606475830078 0.04591013863682747 49.40103149414062 0.04621696472167969 49.40618133544922 0.0468263179063797 C 49.38864135742188 0.04979236051440239 49.37129592895508 0.052845548838377 49.35351943969727 0.05609763786196709 Z" stroke="none" fill="#7cb342"/>
      </g>
    </g>
  </g>
</svg>
