<svg xmlns="http://www.w3.org/2000/svg" width="82.818" height="61.523" viewBox="0 0 82.818 61.523">
  <g id="Group_107" data-name="Group 107" transform="translate(6.407 6.409)">
    <g id="Rectangle_89" data-name="Rectangle 89" transform="translate(13.219 23.821)" fill="#fff" stroke="#0086f4" stroke-linejoin="round" stroke-width="5">
      <rect width="42.728" height="26.294" stroke="none"/>
      <rect x="-2.5" y="-2.5" width="47.728" height="31.294" fill="none"/>
    </g>
    <g id="Path_189" data-name="Path 189" transform="translate(8.189 0) rotate(20)" fill="#fff" stroke-linejoin="round">
      <path d="M -7.926455020904541 26.79668235778809 L -1.506955146789551 21.94708251953125 L 27.3836669921875 0.1216608583927155 L 27.98944473266602 -0.3359835743904114 L 28.74741172790527 -0.3794724643230438 L 65.63510894775391 -2.495939254760742 L 73.84709167480469 -2.967105865478516 L 67.28616333007812 1.994038581848145 L 37.75490188598633 24.32458305358887 L 37.134765625 24.79351615905762 L 36.35806655883789 24.82803916931152 L 0.1110115647315979 26.43938255310059 L -7.926455020904541 26.79668235778809 Z" stroke="none"/>
      <path d="M -1.510253878223011e-05 23.94185256958008 L 36.24705123901367 22.33050537109375 L 65.77830505371094 -4.136271309107542e-05 L 28.89061164855957 2.116438627243042 L -1.510253878223011e-05 23.94185256958008 M -0.001561821321956813 28.94189071655273 C -2.100849390029907 28.94189071655273 -3.987453460693359 27.62618255615234 -4.704201698303223 25.63614463806152 C -5.446268558502197 23.5758113861084 -4.761241912841797 21.27233123779297 -3.013908386230469 19.95231819152832 L 25.87671852111816 -1.87309467792511 C 26.66661071777344 -2.469828128814697 27.61586570739746 -2.818641424179077 28.60419845581055 -2.875348091125488 L 65.49188995361328 -4.991827964782715 C 65.58834075927734 -4.99736213684082 65.68448638916016 -5.000100135803223 65.78015899658203 -5.000100135803223 C 67.86470031738281 -5.000100135803223 69.74467468261719 -3.701118469238281 70.47107696533203 -1.725681304931641 C 71.2308349609375 0.3404386341571808 70.54991912841797 2.660372018814087 68.79402160644531 3.988118648529053 L 39.26277160644531 26.31866455078125 C 38.45499801635742 26.92947769165039 37.48081207275391 27.28059768676758 36.4691047668457 27.32557106018066 L 0.2220382243394852 28.93691825866699 C 0.1473957151174545 28.94023704528809 0.07259310781955719 28.94189071655273 -0.001561821321956813 28.94189071655273 Z" stroke="none" fill="#fe4761"/>
    </g>
  </g>
</svg>
