<svg xmlns="http://www.w3.org/2000/svg" width="77.072" height="34.915" viewBox="0 0 77.072 34.915">
  <g id="Group_108" data-name="Group 108" transform="translate(3.537 1.768)">
    <path id="Path_197" data-name="Path 197" d="M21.386-7.038c0-3.978-2.754-5.678-6.97-6.6l-3.23-.748c-1.734-.374-2.652-.918-2.652-2.176,0-1.5,1.326-2.312,3.3-2.312,2.346,0,3.434,1.19,3.74,2.924h5.78c-.442-4.862-3.944-6.8-7.242-7.446v-3.774H9.656v3.638c-4.454.578-7.378,3.366-7.378,7.446,0,3.672,2.142,5.814,6.7,6.8l3.808.85c1.972.374,2.448,1.19,2.448,1.972,0,1.258-1.122,2.04-3.264,2.04-2.72,0-4.488-1.224-4.862-3.264H1.36C1.836-2.754,5.372-.272,9.656.34v3.4H14.11V.306C18.564-.374,21.386-3.06,21.386-7.038Z" transform="translate(22.73 28)" fill="#7cb342"/>
    <path id="Path_91" data-name="Path 91" d="M411.79,3459l-15.69,15.689,15.69,15.689" transform="translate(-396.1 -3459)" fill="#fff" stroke="#0086f4" stroke-width="5"/>
    <path id="Path_92" data-name="Path 92" d="M396.1,3459l15.69,15.689-15.69,15.689" transform="translate(-341.79 -3459)" fill="#fff" stroke="#0086f4" stroke-width="5"/>
  </g>
</svg>
