<svg xmlns="http://www.w3.org/2000/svg" xmlns:xlink="http://www.w3.org/1999/xlink" viewBox="0 0 1920 1080">
  <defs>
    <linearGradient id="linear-gradient" x1="0.934" y1="-0.034" x2="-0.494" y2="1" gradientUnits="objectBoundingBox">
      <stop offset="0" stop-color="#00dd9d"/>
      <stop offset="1" stop-color="#006f4f"/>
    </linearGradient>
    <filter id="Path_10" x="888.646" y="323.768" width="225.469" height="204.522" filterUnits="userSpaceOnUse">
      <feOffset dy="3" input="SourceAlpha"/>
      <feGaussianBlur stdDeviation="10" result="blur"/>
      <feFlood flood-opacity="0.161"/>
      <feComposite operator="in" in2="blur"/>
      <feComposite in="SourceGraphic"/>
    </filter>
    <filter id="Union_10" x="807" y="323.768" width="210.141" height="204.522" filterUnits="userSpaceOnUse">
      <feOffset dy="3" input="SourceAlpha"/>
      <feGaussianBlur stdDeviation="10" result="blur-2"/>
      <feFlood flood-opacity="0.161"/>
      <feComposite operator="in" in2="blur-2"/>
      <feComposite in="SourceGraphic"/>
    </filter>
    <clipPath id="clip-Web_1920_1">
      <rect width="1920" height="1080"/>
    </clipPath>
  </defs>
  <g id="Web_1920_1" data-name="Web 1920 – 1" clip-path="url(#clip-Web_1920_1)">
    <rect width="1920" height="1080" fill="#fff"/>
    <g id="Group_21" data-name="Group 21" transform="translate(554.981 -1123.228)">
      <g transform="matrix(1, 0, 0, 1, -554.98, 1123.23)" filter="url(#Path_10)">
        <path id="Path_10-2" data-name="Path 10" d="M-106.45,0h38.919l-126.55,144.522H-233Z" transform="translate(1151.65 350.77)" fill="url(#linear-gradient)"/>
      </g>
      <g transform="matrix(1, 0, 0, 1, -554.98, 1123.23)" filter="url(#Union_10)">
        <path id="Union_10-2" data-name="Union 10" d="M82.584,144.522,93.467,91.343h-44.6L37.98,144.522H0L29.577,0h37.98L56.674,53.179h44.6L112.16,0h37.98L120.564,144.522Z" transform="translate(837 350.77)" fill="url(#linear-gradient)"/>
      </g>
    </g>
    <path id="Path_14" data-name="Path 14" d="M-185.559-3.564c-10.428,0-18.546-8.118-18.546-18.876s8.118-18.876,18.546-18.876c8.448,0,14.586,4.818,16.5,12.21h4.884c-2.178-9.9-10.362-16.7-21.384-16.7a23.1,23.1,0,0,0-23.3,23.364A23.1,23.1,0,0,0-185.559.924c11.022,0,19.206-6.8,21.384-16.7h-4.884C-170.973-8.382-177.111-3.564-185.559-3.564Zm44.682-27.72a15.894,15.894,0,0,0-16.236,16.038A15.978,15.978,0,0,0-140.877.99a15.963,15.963,0,0,0,16.17-16.236A15.878,15.878,0,0,0-140.877-31.284Zm0,28.182c-6.666,0-11.682-5.412-11.682-12.144a11.664,11.664,0,0,1,11.682-11.88,11.664,11.664,0,0,1,11.682,11.88C-129.195-8.514-134.211-3.1-140.877-3.1Zm62.37-28.38a14.778,14.778,0,0,0-12.21,5.676,11.747,11.747,0,0,0-10.428-5.676,12.682,12.682,0,0,0-10.23,4.488v-3.5h-4.488V0h4.488V-21.78c2.442-3.7,5.808-5.544,9.438-5.544,5.412,0,8.778,3.63,8.778,9.966V0h4.488V-17.556a18.1,18.1,0,0,0-.4-3.894A11.091,11.091,0,0,1-79.3-27.324c5.478,0,8.778,3.63,8.778,9.966V0h4.488V-17.556C-66.033-26.136-71.181-31.482-78.507-31.482Zm25.542-7.524A3.019,3.019,0,0,0-49.8-42.042a3.059,3.059,0,0,0-3.168-3.036,3.043,3.043,0,0,0-3.1,3.036A3,3,0,0,0-52.965-39.006Zm2.244,8.514h-4.488V0h4.488Zm27.852-.99a15.576,15.576,0,0,0-11.286,4.62v-3.63h-4.488V0h4.488V-21.648a13.214,13.214,0,0,1,10.494-5.676c5.544,0,9.306,3.63,9.306,9.966V0h4.488V-17.556C-9.867-26.136-15.213-31.482-22.869-31.482Zm51.876.99H24.519v3.3a16.587,16.587,0,0,0-11.484-4.356c-8.712,0-15.378,6.864-15.378,15.906A15.45,15.45,0,0,0,13.035,0,16.587,16.587,0,0,0,24.519-4.356V.99h-.066c0,6.732-4.29,10.89-10.626,10.89-5.544,0-9.5-2.9-10.428-7.194h-4.62c1.056,6.666,7.062,11.352,15.048,11.352,9.042,0,15.18-5.874,15.18-15.048ZM13.629-3.96A11.517,11.517,0,0,1,2.211-15.642c0-6.666,4.752-11.946,11.418-11.946a12.854,12.854,0,0,1,10.89,5.742V-9.7A12.854,12.854,0,0,1,13.629-3.96ZM74.613-45.87c-9.5,0-15.906,5.148-15.906,12.87,0,6.072,4.158,10.23,12.408,11.748L78.9-19.734c5.808,1.056,8.448,3.894,8.448,7.656,0,5.346-4.554,8.844-11.748,8.844-8.25,0-13.134-4.092-14.256-11.088h-4.62C57.783-4.62,64.647.99,75.4.99c10.032,0,16.7-5.412,16.7-13.6,0-6.4-4.488-10.164-12.474-11.682l-6.8-1.32c-5.94-1.056-9.174-3.564-9.174-7.656,0-5.214,4.488-8.514,11.286-8.514,7.524,0,11.484,3.564,12.54,9.042H92.1C90.981-41.58,83.721-45.87,74.613-45.87ZM115.6-31.284A15.894,15.894,0,0,0,99.363-15.246,15.978,15.978,0,0,0,115.6.99a15.963,15.963,0,0,0,16.17-16.236A15.878,15.878,0,0,0,115.6-31.284Zm0,28.182c-6.666,0-11.682-5.412-11.682-12.144A11.664,11.664,0,0,1,115.6-27.126a11.664,11.664,0,0,1,11.682,11.88C127.281-8.514,122.265-3.1,115.6-3.1Zm39.6-28.182a15.894,15.894,0,0,0-16.236,16.038A15.978,15.978,0,0,0,155.2.99a15.963,15.963,0,0,0,16.17-16.236A15.878,15.878,0,0,0,155.2-31.284Zm0,28.182c-6.666,0-11.682-5.412-11.682-12.144A11.664,11.664,0,0,1,155.2-27.126a11.664,11.664,0,0,1,11.682,11.88C166.881-8.514,161.865-3.1,155.2-3.1Zm40.788-28.38a15.576,15.576,0,0,0-11.286,4.62v-3.63h-4.488V0H184.7V-21.648a13.214,13.214,0,0,1,10.494-5.676c5.544,0,9.306,3.63,9.306,9.966V0h4.488V-17.556C208.989-26.136,203.643-31.482,195.987-31.482Z" transform="translate(960 705)" fill="#141414"/>
    <path id="Path_13" data-name="Path 13" d="M46.575-46.92H34.914v18.837H15.8V-46.92H4.14V0H15.8V-17.595H34.914V0H46.575ZM89.907-33.465H78.729v1.794a16.7,16.7,0,0,0-9.177-2.553c-9.039,0-16.629,7.452-16.629,17.457C52.923-6.831,60.513.69,69.552.69a16.7,16.7,0,0,0,9.177-2.553V0H89.907ZM71.76-8.487c-4.554,0-7.866-3.657-7.866-8.28s3.312-8.349,7.866-8.349a8.666,8.666,0,0,1,6.969,3.174v10.35A8.591,8.591,0,0,1,71.76-8.487Zm42.021-.207c-4.761,0-7.659-3.519-7.659-8.073s2.9-8,7.659-8c3.45,0,6,2,6.555,5.037h10.557c-.759-8.625-7.866-14.49-17.112-14.49-10.557,0-18.285,7.314-18.285,17.457C95.5-6.555,103.224.759,113.781.759c9.246,0,16.353-5.865,17.112-14.49H120.336C119.784-10.695,117.231-8.694,113.781-8.694Zm38.916-2.9L160.7,0h13.386l-13.8-19.8,12.7-13.662H159.666L148.005-20.907V-48.99H136.827V0h11.178V-6.555Zm71.76-35.328H211.623L198.237-15.111,184.851-46.92H172.017L192.372.276H204.1Zm16.008,0H228.8V0h11.661ZM287.247-36.5V-46.92H245.709V-36.5h14.973V0h11.661V-36.5Z" transform="translate(816 589)" fill="#141414"/>
  </g>
</svg>
