<svg xmlns="http://www.w3.org/2000/svg" xmlns:xlink="http://www.w3.org/1999/xlink" viewBox="0 0 1920 1080">

  <style>

  #Group_33{
    transform:translateY(20px);
    opacity:0;
    animation:fadeinani .3s ease-in-out .4s forwards;
  }

  @keyframes fadeinani{
  
  from {

  transform:translateY(20px);
  opacity:0;

  }
  
  to {
  
  transform:translateY(0px);
  opacity:1;
  
  }


  }

  @keyframes fadeinanitwo{
  
  from {

  transform:translateY(35px);
  opacity:0;

  }
  
  to {
  
  transform:translateY(15px);
  opacity:1;
  
  }

  }

  #test{
  
  transform:translateY(35px);
  opacity:0;
  animation:fadeinanitwo .3s ease-in-out .5s forwards;
  
  }

  #test-two{
  
  transform:translateY(35px);
  opacity:0;
  animation:fadeinani .3s ease-in-out .8s forwards;
  
  }

  </style>

  <defs>
    <clipPath id="clip-Web_1920_1" fill="#fff">
      <rect width="1920" height="1080"/> 
    </clipPath>
  </defs>
  <g id="Web_1920_1" data-name="Web 1920 – 1" clip-path="url(#clip-Web_1920_1)">
    <rect width="1920" height="1080" fill="#fff"/>
    <g id="Group_34" data-name="Group 34" transform="translate(768.608 309.222)">
      <g id="Group_33" data-name="Group 33" transform="translate(0 0)">
        <path id="Path_78" data-name="Path 78" d="M-22190.266,16014.705v-58.769l40.809-28.14,37.543,28.14v58.769Z" transform="translate(22297.83 -15810.412)" fill="#006cc4"/>
        <path id="Path_79" data-name="Path 79" d="M-22166.75,16001.11h66.453v-68.219l-66.453,40.587Z" transform="translate(22364.137 -15796.815)" fill="#0086f4"/>
        <path id="Path_80" data-name="Path 80" d="M-22182.156,16006.175l9.984-8.285,38.5,29.308v-132.057l-48.48,27.6Z" transform="translate(22319.596 -15895.141)" fill="#006cc4"/>
        <path id="Path_81" data-name="Path 81" d="M-22166.75,15910.344v111.108l47.262-28.941v-51.864Z" transform="translate(22364.137 -15857.156)" fill="#0086f4"/>
        <path id="Path_82" data-name="Path 82" d="M-22151.877,15924.641v27.882l12.576-7.043h44.244l74.094,78.132-.674-45.017-54.707-53.954Z" transform="translate(22407.984 -15820.241)" fill="#0086f4"/>
        <path id="Path_83" data-name="Path 83" d="M-22146.812,15932.892h31.609l66.207,67.446h-97.816Z" transform="translate(22422.162 -15796.144)" fill="#006cc4"/>
        <path id="Path_84" data-name="Path 84" d="M-22096.459,15921.641v16.292l-29.531,21.38v64.177h-96v-43.212l58.633-58.637Z" transform="translate(22221.986 -15819.26)" fill="#0086f4"/>
      </g>
      <g id="test">
        <path id="Path_86" data-name="Path 86" d="M-143.714-56.5H-158.3l-15.212,36.149L-188.723-56.5h-14.585l23.132,53.635h13.33Zm18.192,0h-13.252V-3.182h13.252Zm53.165,11.841V-56.5h-47.205v11.841h17.016V-3.182h13.252V-44.664ZM2.529-56.5H-10.723V-35.1H-32.444V-56.5H-45.7V-3.182h13.252v-20h21.721v20H2.529ZM48.323-12.357,51.93-3.182H65.967L43.383-56.818H30.758L8.1-3.182H22.211l3.529-9.174ZM43.932-23.649h-13.8l6.9-17.722Zm50.342,9.174c-8.7,0-14.742-6.508-14.742-15.369S85.57-45.213,94.274-45.213c7.057,0,11.762,4.156,13.252,10.821h13.566C119.445-48.192,108.938-57.6,94.353-57.6c-16.075,0-28.229,11.684-28.229,27.759S78.278-2.085,94.353-2.085c14.585,0,25.093-9.41,26.739-23.211H107.526C106.036-18.63,101.331-14.474,94.274-14.474Zm55.831-8.312L165-3.182h16.153L159.123-33.137,179.432-56.5H163.749L142.5-32.274V-56.5H129.247V-3.182H142.5V-14Z" transform="translate(205.862 296.616)" fill="#141414"/>
      </g>
    </g>
  </g>
</svg>
