<svg xmlns="http://www.w3.org/2000/svg" xmlns:xlink="http://www.w3.org/1999/xlink" viewBox="0 0 1920 1080">
  <defs>
    <clipPath id="clip-Web_1920_1">
      <rect width="1920" height="1080"/>
    </clipPath>
  </defs>
  <g id="Web_1920_1" data-name="Web 1920 – 1" clip-path="url(#clip-Web_1920_1)">
    <rect width="1920" height="1080" fill="#fff"/>
    <g id="Group_34" data-name="Group 34" transform="translate(768.608 309.222)">
      <g id="Group_33" data-name="Group 33" transform="translate(0 0)">
        <path id="Path_78" data-name="Path 78" d="M-22190.266,16014.705v-58.769l40.809-28.14,37.543,28.14v58.769Z" transform="translate(22297.83 -15810.412)" fill="#006cc4"/>
        <path id="Path_79" data-name="Path 79" d="M-22166.75,16001.11h66.453v-68.219l-66.453,40.587Z" transform="translate(22364.137 -15796.815)" fill="#0086f4"/>
        <path id="Path_80" data-name="Path 80" d="M-22182.156,16006.175l9.984-8.285,38.5,29.308v-132.057l-48.48,27.6Z" transform="translate(22319.596 -15895.141)" fill="#006cc4"/>
        <path id="Path_81" data-name="Path 81" d="M-22166.75,15910.344v111.108l47.262-28.941v-51.864Z" transform="translate(22364.137 -15857.156)" fill="#0086f4"/>
        <path id="Path_82" data-name="Path 82" d="M-22151.877,15924.641v27.882l12.576-7.043h44.244l74.094,78.132-.674-45.017-54.707-53.954Z" transform="translate(22407.984 -15820.241)" fill="#0086f4"/>
        <path id="Path_83" data-name="Path 83" d="M-22146.812,15932.892h31.609l66.207,67.446h-97.816Z" transform="translate(22422.162 -15796.144)" fill="#006cc4"/>
        <path id="Path_84" data-name="Path 84" d="M-22096.459,15921.641v16.292l-29.531,21.38v64.177h-96v-43.212l58.633-58.637Z" transform="translate(22221.986 -15819.26)" fill="#0086f4"/>
      </g>
      <path id="Path_86" data-name="Path 86" d="M-143.714-56.5H-158.3l-15.212,36.149L-188.723-56.5h-14.585l23.132,53.635h13.33Zm18.192,0h-13.252V-3.182h13.252Zm53.165,11.841V-56.5h-47.205v11.841h17.016V-3.182h13.252V-44.664ZM2.529-56.5H-10.723V-35.1H-32.444V-56.5H-45.7V-3.182h13.252v-20h21.721v20H2.529ZM48.323-12.357,51.93-3.182H65.967L43.383-56.818H30.758L8.1-3.182H22.211l3.529-9.174ZM43.932-23.649h-13.8l6.9-17.722Zm50.342,9.174c-8.7,0-14.742-6.508-14.742-15.369S85.57-45.213,94.274-45.213c7.057,0,11.762,4.156,13.252,10.821h13.566C119.445-48.192,108.938-57.6,94.353-57.6c-16.075,0-28.229,11.684-28.229,27.759S78.278-2.085,94.353-2.085c14.585,0,25.093-9.41,26.739-23.211H107.526C106.036-18.63,101.331-14.474,94.274-14.474Zm55.831-8.312L165-3.182h16.153L159.123-33.137,179.432-56.5H163.749L142.5-32.274V-56.5H129.247V-3.182H142.5V-14Z" transform="translate(205.862 296.616)" fill="#141414"/>
    </g>
    <path id="Path_87" data-name="Path 87" d="M-171.455-3.21c-9.659,0-17.178-7.519-17.178-17.484s7.519-17.484,17.178-17.484c7.825,0,13.51,4.463,15.283,11.309h4.524c-2.017-9.17-9.6-15.466-19.807-15.466a21.4,21.4,0,0,0-21.579,21.64A21.4,21.4,0,0,0-171.455.947c10.209,0,17.789-6.3,19.807-15.466h-4.524C-157.945-7.672-163.63-3.21-171.455-3.21Zm41.386-25.675A14.721,14.721,0,0,0-145.108-14.03,14.8,14.8,0,0,0-130.069,1.008,14.786,14.786,0,0,0-115.092-14.03,14.707,14.707,0,0,0-130.069-28.885Zm0,26.1c-6.174,0-10.82-5.013-10.82-11.248a10.8,10.8,0,0,1,10.82-11,10.8,10.8,0,0,1,10.82,11C-119.249-7.795-123.9-2.782-130.069-2.782ZM-72.3-29.068A13.688,13.688,0,0,0-83.61-23.811a10.881,10.881,0,0,0-9.659-5.257,11.747,11.747,0,0,0-9.475,4.157v-3.24H-106.9V.091h4.157V-20.082c2.262-3.423,5.38-5.135,8.742-5.135,5.013,0,8.13,3.362,8.13,9.231V.091h4.157V-16.17a16.764,16.764,0,0,0-.367-3.607,10.273,10.273,0,0,1,9.047-5.441c5.074,0,8.13,3.362,8.13,9.231V.091h4.157V-16.17C-60.747-24.117-65.515-29.068-72.3-29.068Zm23.658-6.969a2.8,2.8,0,0,0,2.934-2.812,2.834,2.834,0,0,0-2.934-2.812,2.818,2.818,0,0,0-2.873,2.812A2.781,2.781,0,0,0-48.643-36.037Zm2.078,7.886h-4.157V.091h4.157Zm25.8-.917A14.427,14.427,0,0,0-31.22-24.789v-3.362h-4.157V.091h4.157V-19.96a12.239,12.239,0,0,1,9.72-5.257c5.135,0,8.619,3.362,8.619,9.231V.091h4.157V-16.17C-8.724-24.117-13.676-29.068-20.767-29.068Zm48.049.917H23.125v3.057A15.363,15.363,0,0,0,12.488-29.13C4.419-29.13-1.755-22.772-1.755-14.4A14.311,14.311,0,0,0,12.488.091,15.363,15.363,0,0,0,23.125-3.943V1.008h-.061c0,6.235-3.974,10.087-9.842,10.087-5.135,0-8.8-2.69-9.659-6.663H-.716c.978,6.174,6.541,10.515,13.938,10.515,8.375,0,14.06-5.441,14.06-13.938ZM13.039-3.577A10.668,10.668,0,0,1,2.463-14.4c0-6.174,4.4-11.065,10.576-11.065a11.906,11.906,0,0,1,10.087,5.318V-8.9A11.906,11.906,0,0,1,13.039-3.577ZM69.524-42.4c-8.8,0-14.733,4.768-14.733,11.921,0,5.624,3.851,9.475,11.493,10.881L73.5-18.187c5.38.978,7.825,3.607,7.825,7.091C81.322-6.144,77.1-2.9,70.441-2.9c-7.641,0-12.165-3.79-13.2-10.27H52.957c.978,8.986,7.336,14.182,17.3,14.182,9.292,0,15.466-5.013,15.466-12.593,0-5.93-4.157-9.414-11.554-10.82l-6.3-1.223c-5.5-.978-8.5-3.3-8.5-7.091,0-4.829,4.157-7.886,10.453-7.886,6.969,0,10.637,3.3,11.615,8.375h4.279C84.684-38.421,77.96-42.4,69.524-42.4Zm37.962,13.51A14.721,14.721,0,0,0,92.448-14.03,14.8,14.8,0,0,0,107.486,1.008,14.786,14.786,0,0,0,122.463-14.03,14.707,14.707,0,0,0,107.486-28.885Zm0,26.1c-6.174,0-10.82-5.013-10.82-11.248a10.8,10.8,0,0,1,10.82-11,10.8,10.8,0,0,1,10.82,11C118.307-7.795,113.661-2.782,107.486-2.782Zm36.679-26.1A14.721,14.721,0,0,0,129.127-14.03,14.8,14.8,0,0,0,144.165,1.008,14.786,14.786,0,0,0,159.142-14.03,14.707,14.707,0,0,0,144.165-28.885Zm0,26.1c-6.174,0-10.82-5.013-10.82-11.248a10.8,10.8,0,0,1,10.82-11,10.8,10.8,0,0,1,10.82,11C154.985-7.795,150.339-2.782,144.165-2.782Zm37.779-26.286a14.427,14.427,0,0,0-10.453,4.279v-3.362h-4.157V.091h4.157V-19.96a12.239,12.239,0,0,1,9.72-5.257c5.135,0,8.62,3.362,8.62,9.231V.091h4.157V-16.17C193.987-24.117,189.035-29.068,181.944-29.068Z" transform="translate(961.642 717)" fill="#141414"/>
  </g>
</svg>
